<svg xmlns="http://www.w3.org/2000/svg" version="1.1" xmlns:xlink="http://www.w3.org/1999/xlink" xmlns:svgjs="http://svgjs.dev/svgjs" viewBox="0 0 1920 1080"><rect width="1920" height="1080" fill="#2f2e41"></rect><g transform="matrix(0.5750000000000001,0.9959292143521044,-0.9959292143521044,0.5750000000000001,932.9509877290486,-696.4779864423797)"><path d="M0,-1080C-10.042210435677127,-970.5997671464287,-64.35887880862995,-625.60278107019,-60.25326261406276,-423.5986028785723C-56.14764641949557,-221.59442468695462,0.3059013356395077,-91.88600615909996,24.633697167403156,132.02506914970598C48.96149299916681,355.93614445851193,82.02924388602486,695.4403433519557,85.71351237651913,919.8678489742634C89.39778086701341,1144.295354596571,61.02489350645532,1271.9014110459298,46.739308110368796,1478.5901028835526C32.45372271428227,1685.2787947211755,7.789884685061466,2046.4316838139255,0,2160L 1920 2160 L 1920 -1080 Z" fill="url(&quot;#SvgjsLinearGradient1195&quot;)"></path><path d="M274.2857142857143,-1080C283.24103450535324,-1015.2616078583947,341.6948656165663,-837.3680199399436,328.01763560354823,-691.5696471503679C314.34040559053017,-545.7712743607923,202.71441973228767,-345.97451692359135,192.22233420760597,-205.20976326254637C181.73024868292427,-64.4450096015014,256.9822350913443,33.74212043095427,265.06512245545804,153.018874815902C273.14800981957177,272.2956292008497,252.5244168917375,365.68870755456544,240.71965839228832,510.45076304713996C228.91489989283914,655.2128185397145,196.08369307541858,875.6769024570925,194.23657145876297,1021.5912077713493C192.38944984210735,1167.505513085606,208.97179364915638,1257.1072775319556,229.6369286923547,1385.9365949326807C250.30206373555302,1514.7659123334058,310.78591745239294,1665.5565446644803,318.2273817179529,1794.5671121757002C325.6688459835128,1923.5776796869202,281.6093255244207,2099.0945186959502,274.2857142857143,2160L 1920 2160 L 1920 -1080 Z" fill="url(&quot;#SvgjsLinearGradient1196&quot;)"></path><path d="M548.5714285714286,-1080C538.1465007837168,-961.4577463692387,470.2638725602075,-588.8156862682952,486.0218618451575,-368.7464782154323C501.7798511301075,-148.6772701625695,642.9967778337276,24.640266679432017,643.1193642811284,240.41524831717697C643.2419507285291,456.19022995492196,518.4501076291646,704.9176496332631,486.75738052956206,925.9034116110374C455.06465342995955,1146.8891735888117,442.6606603432024,1360.6470554523291,452.9630016835135,1566.329820183823C463.2653430238246,1772.0125849153167,532.636690756776,2061.0549700306374,548.5714285714286,2160L 1920 2160 L 1920 -1080 Z" fill="url(&quot;#SvgjsLinearGradient1197&quot;)"></path><path d="M822.8571428571428,-1080C821.3189693231519,-975.7632236497462,808.3956776877782,-678.4577638911593,813.6281016531975,-454.5793418984774C818.8605256186169,-230.70091990579553,838.6555115122272,57.26952370732951,854.2516866496591,263.2705319560914C869.8478617870909,469.2715402048533,899.3295812912012,573.8449023126733,907.2051524777886,781.4267075940941C915.080723664376,989.0085128755148,915.5631153726247,1278.999148243632,901.5051137691837,1508.7613636446163C887.4471121657427,1738.5235790456006,835.9651380091495,2051.4602272741026,822.8571428571428,2160L 1920 2160 L 1920 -1080 Z" fill="url(&quot;#SvgjsLinearGradient1198&quot;)"></path><path d="M1097.142857142857,-1080C1091.0214408304348,-950.6390035814284,1045.3346061820796,-581.194969210175,1060.4143592683229,-303.8340214885705C1075.4941123545661,-26.47307376696591,1194.574544668907,310.4072833532358,1187.6213756603165,584.1656863296275C1180.668206651726,857.9240893060193,1033.7750983030237,1076.0773440913845,1018.6953452167804,1338.7163963697799C1003.6155921305372,1601.3554486481753,1084.0682718218443,2023.1193993949632,1097.142857142857,2160L 1920 2160 L 1920 -1080 Z" fill="url(&quot;#SvgjsLinearGradient1199&quot;)"></path><path d="M1371.4285714285716,-1080C1364.0301263324766,-989.0174321810389,1328.871744663011,-729.6779948803002,1327.0379008520017,-534.104593086233C1325.2040570409924,-338.5311912921658,1357.2189085111968,-98.23226150729215,1360.4255085625164,93.44041076440286C1363.632108613836,285.11308303609786,1342.5055709341168,445.3609639454588,1346.277501159919,615.9314405439372C1350.0494313857212,786.5019171424157,1365.7637968393703,944.8860136544758,1383.0570899173301,1116.8632703552735C1400.35038299529,1288.840527056071,1451.9753460424704,1473.9388591412685,1450.0372596276773,1647.794980748723C1448.0991732128841,1821.6511023561775,1384.5300194617557,2074.632496791454,1371.4285714285716,2160L 1920 2160 L 1920 -1080 Z" fill="url(&quot;#SvgjsLinearGradient1200&quot;)"></path><path d="M1645.7142857142856,-1080C1654.0437267547575,-1004.0225575484217,1703.7366473473198,-817.1197262555586,1695.6909319571175,-624.1353452905302C1687.6452165669152,-431.1509643255017,1601.3756071015819,-103.06865368735978,1597.4399933730715,77.90628579017027C1593.5043796445611,258.8812252677003,1649.1339723910787,298.34318135736964,1672.0772495860547,461.7142915746503C1695.0205267810306,625.085401791931,1727.5087497018403,877.767154977666,1735.0996565429268,1058.1329470938545C1742.6905633840133,1238.498739210043,1732.5202524373472,1360.26453545409,1717.6226906325737,1543.9090442717809C1702.7251288278003,1727.5535530894717,1657.6990198673336,2057.318174045297,1645.7142857142856,2160L 1920 2160 L 1920 -1080 Z" fill="url(&quot;#SvgjsLinearGradient1201&quot;)"></path></g><defs><linearGradient x1="0.1" y1="0" x2="0" y2="1" id="SvgjsLinearGradient1195"><stop stop-color="#2f2e41" offset="0"></stop><stop stop-color="#2e3041" offset="0"></stop></linearGradient><linearGradient x1="0.1" y1="0" x2="0" y2="1" id="SvgjsLinearGradient1196"><stop stop-color="#292839" offset="0"></stop><stop stop-color="#282a39" offset="0.14285714285714285"></stop></linearGradient><linearGradient x1="0.1" y1="0" x2="0" y2="1" id="SvgjsLinearGradient1197"><stop stop-color="#232331" offset="0"></stop><stop stop-color="#232531" offset="0.2857142857142857"></stop></linearGradient><linearGradient x1="0.1" y1="0" x2="0" y2="1" id="SvgjsLinearGradient1198"><stop stop-color="#1d1d29" offset="0"></stop><stop stop-color="#1d1f29" offset="0.42857142857142855"></stop></linearGradient><linearGradient x1="0.1" y1="0" x2="0" y2="1" id="SvgjsLinearGradient1199"><stop stop-color="#181721" offset="0"></stop><stop stop-color="#171821" offset="0.5714285714285714"></stop></linearGradient><linearGradient x1="0.1" y1="0" x2="0" y2="1" id="SvgjsLinearGradient1200"><stop stop-color="#121118" offset="0"></stop><stop stop-color="#111118" offset="0.7142857142857143"></stop></linearGradient><linearGradient x1="0.1" y1="0" x2="0" y2="1" id="SvgjsLinearGradient1201"><stop stop-color="#0c0c10" offset="0"></stop><stop stop-color="#0c0d10" offset="0.8571428571428571"></stop></linearGradient></defs></svg>