<?xml version="1.0" encoding="utf-8"?>
<!-- Generator: Adobe Illustrator 21.0.0, SVG Export Plug-In . SVG Version: 6.00 Build 0)  -->
<svg version="1.1" id="Layer_1" xmlns="http://www.w3.org/2000/svg" xmlns:xlink="http://www.w3.org/1999/xlink" x="0px" y="0px"
	 viewBox="0 0 500 500" enable-background="new 0 0 500 500" xml:space="preserve">
<g>
	<rect x="0" fill="#A0C1D1" width="500" height="500"/>
</g>
<rect x="71" y="79" fill="#3C5C68" width="164" height="20"/>
<rect x="113" y="150" fill="#3C5C68" width="277" height="50"/>
<text transform="matrix(1 0 0 1 25.75 107.5)" fill="#575B5B" font-family="'Ubuntu-Regular'" font-size="60px">&lt;</text>
<text transform="matrix(-1 0 0 1 277.75 107.5)" fill="#575B5B" font-family="'Ubuntu-Regular'" font-size="60px">&lt;</text>
<text transform="matrix(1 0 0 1 25.75 430.5)" fill="#575B5B" font-family="'Ubuntu-Regular'" font-size="60px">&lt;</text>
<rect x="71" y="402" fill="#3C5C68" width="164" height="20"/>
<text transform="matrix(-1 0 0 1 307.75 430.5)" fill="#575B5B" font-family="'Ubuntu-Regular'" font-size="60px">&lt;</text>
<rect x="113" y="227" fill="#3C5C68" width="277" height="50"/>
<rect x="112" y="304" fill="#3C5C68" width="277" height="50"/>
<text transform="matrix(1 0 0 1 244.6665 430.667)" fill="#575B5B" font-family="'Ubuntu-Regular'" font-size="60px">/</text>
<rect x="-340" y="150" fill="#D6D622" width="277" height="50"/>
<rect x="-340" y="227" fill="#D16434" width="277" height="50"/>
<rect x="-341" y="304" fill="#5EAD4E" width="277" height="50"/>
</svg>
