<?xml version="1.0" encoding="utf-8"?>
<!-- Generator: Adobe Illustrator 21.0.0, SVG Export Plug-In . SVG Version: 6.00 Build 0)  -->
<svg version="1.1" id="Layer_1" xmlns="http://www.w3.org/2000/svg" xmlns:xlink="http://www.w3.org/1999/xlink" x="0px" y="0px"
	 viewBox="0 0 500 500" enable-background="new 0 0 500 500" xml:space="preserve">
<g>
	<rect x="-4.7" fill="#7FFFBD" width="504.7" height="499.8"/>
</g>
<g>
	<path fill="#6D471B" d="M329.4,233.6H180.1c-14.4,0-26.1-11.8-26.1-26.1V188c0-28.6,23.2-51.9,51.9-51.9h106.3
		c25,0,45.5,20.5,45.5,45.5v23.8C357.6,221,344.9,233.6,329.4,233.6z"/>
</g>
<g>
	<rect x="-4.7" y="453.5" fill="#51361B" width="504.7" height="47.5"/>
</g>
<g>
	<circle fill="#E8D0AF" cx="256.6" cy="239.2" r="96.8"/>
</g>
<g>
	<path fill="#8E8E8E" d="M420.3,437.3H92.9c-4.5,0-8.2-3.7-8.2-8.2V223c0-4.5,3.7-8.2,8.2-8.2h327.4c4.5,0,8.2,3.7,8.2,8.2v206.2
		C428.4,433.6,424.8,437.3,420.3,437.3z"/>
</g>
<path fill="#777777" d="M437,453.5H75.7c-2.3,0-4.3-1.9-4.3-4.3v-12.7c0-2.3,1.9-4.3,4.3-4.3H437c2.3,0,4.3,1.9,4.3,4.3v12.7
	C441.3,451.6,439.4,453.5,437,453.5z"/>
<path fill="#6D471B" d="M333.8,151.8c0,10.7-15,33.1-71.2,24.4c-39.5-6.1-73.7-13.7-73.7-24.4c0-10.7,32.4-19.4,72.5-19.4
	S333.8,141.1,333.8,151.8z"/>
<circle fill="#E5E3E1" cx="255.7" cy="333" r="28.1"/>
</svg>
